<svg width="33" height="32" viewBox="0 0 33 32" fill="none" xmlns="http://www.w3.org/2000/svg">
<path d="M28.9013 14.4532C29.4213 14.4532 29.8346 14.0398 29.8346 13.5198V12.2798C29.8346 6.81315 28.168 5.14648 22.7013 5.14648H10.3013C4.83464 5.14648 3.16797 6.81315 3.16797 12.2798V12.9065C3.16797 13.4265 3.5813 13.8398 4.1013 13.8398C5.3013 13.8398 6.27464 14.8132 6.27464 16.0132C6.27464 17.2132 5.3013 18.1732 4.1013 18.1732C3.5813 18.1732 3.16797 18.5865 3.16797 19.1065V19.7332C3.16797 25.1998 4.83464 26.8665 10.3013 26.8665H22.7013C28.168 26.8665 29.8346 25.1998 29.8346 19.7332C29.8346 19.2132 29.4213 18.7998 28.9013 18.7998C27.7013 18.7998 26.728 17.8265 26.728 16.6265C26.728 15.4265 27.7013 14.4532 28.9013 14.4532ZM12.5013 11.8398C13.2346 11.8398 13.8346 12.4398 13.8346 13.1732C13.8346 13.9065 13.248 14.5065 12.5013 14.5065C11.768 14.5065 11.168 13.9065 11.168 13.1732C11.168 12.4398 11.7546 11.8398 12.5013 11.8398ZM20.5013 21.1732C19.7546 21.1732 19.1546 20.5732 19.1546 19.8398C19.1546 19.1065 19.7546 18.5065 20.488 18.5065C21.2213 18.5065 21.8213 19.1065 21.8213 19.8398C21.8213 20.5732 21.248 21.1732 20.5013 21.1732ZM21.7013 12.6398L12.728 21.6132C12.528 21.8132 12.2746 21.9065 12.0213 21.9065C11.768 21.9065 11.5146 21.8132 11.3146 21.6132C10.928 21.2265 10.928 20.5865 11.3146 20.1998L20.288 11.2265C20.6746 10.8398 21.3146 10.8398 21.7013 11.2265C22.088 11.6132 22.088 12.2532 21.7013 12.6398Z" fill="#B3B3B3"/>
</svg>
