<svg width="33" height="32" viewBox="0 0 33 32" fill="none" xmlns="http://www.w3.org/2000/svg">
<path d="M27.447 10.4266L17.1803 16.3733C16.767 16.6133 16.247 16.6133 15.8203 16.3733L5.55362 10.4266C4.82029 9.99992 4.63362 8.99992 5.19362 8.37326C5.58029 7.93326 6.02029 7.57325 6.48695 7.31992L13.7136 3.31992C15.2603 2.45326 17.767 2.45326 19.3136 3.31992L26.5403 7.31992C27.007 7.57325 27.447 7.94659 27.8336 8.37326C28.367 8.99992 28.1803 9.99992 27.447 10.4266Z" fill="#B3B3B3"/>
<path d="M15.7393 18.8545V27.9478C15.7393 28.9611 14.7127 29.6278 13.806 29.1878C11.0593 27.8411 6.43266 25.3211 6.43266 25.3211C4.80599 24.4011 3.47266 22.0811 3.47266 20.1745V13.2945C3.47266 12.2411 4.57932 11.5745 5.48599 12.0945L15.0727 17.6545C15.4727 17.9078 15.7393 18.3611 15.7393 18.8545Z" fill="#B3B3B3"/>
<path d="M17.2617 18.8545V27.9478C17.2617 28.9611 18.2884 29.6278 19.1951 29.1878C21.9417 27.8411 26.5684 25.3211 26.5684 25.3211C28.1951 24.4011 29.5284 22.0811 29.5284 20.1745V13.2945C29.5284 12.2411 28.4217 11.5745 27.5151 12.0945L17.9284 17.6545C17.5284 17.9078 17.2617 18.3611 17.2617 18.8545Z" fill="#B3B3B3"/>
</svg>
