<svg width="33" height="32" viewBox="0 0 33 32" fill="none" xmlns="http://www.w3.org/2000/svg">
<path d="M10.1546 2.66797H7.6213C4.7013 2.66797 3.16797 4.2013 3.16797 7.10797V9.6413C3.16797 12.548 4.7013 14.0813 7.60797 14.0813H10.1413C13.048 14.0813 14.5813 12.548 14.5813 9.6413V7.10797C14.5946 4.2013 13.0613 2.66797 10.1546 2.66797Z" fill="#B3B3B3"/>
<path d="M25.3952 2.66797H22.8619C19.9552 2.66797 18.4219 4.2013 18.4219 7.10797V9.6413C18.4219 12.548 19.9552 14.0813 22.8619 14.0813H25.3952C28.3019 14.0813 29.8352 12.548 29.8352 9.6413V7.10797C29.8352 4.2013 28.3019 2.66797 25.3952 2.66797Z" fill="#B3B3B3"/>
<path d="M25.3952 17.9062H22.8619C19.9552 17.9062 18.4219 19.4396 18.4219 22.3463V24.8796C18.4219 27.7863 19.9552 29.3196 22.8619 29.3196H25.3952C28.3019 29.3196 29.8352 27.7863 29.8352 24.8796V22.3463C29.8352 19.4396 28.3019 17.9062 25.3952 17.9062Z" fill="#B3B3B3"/>
<path d="M10.1546 17.9062H7.6213C4.7013 17.9062 3.16797 19.4396 3.16797 22.3463V24.8796C3.16797 27.7996 4.7013 29.3329 7.60797 29.3329H10.1413C13.048 29.3329 14.5813 27.7996 14.5813 24.8929V22.3596C14.5946 19.4396 13.0613 17.9062 10.1546 17.9062Z" fill="#B3B3B3"/>
</svg>
