<svg width="33" height="32" viewBox="0 0 33 32" fill="none" xmlns="http://www.w3.org/2000/svg">
<path d="M10.6747 4.76089C10.9139 4.63043 11.168 4.83113 11.168 5.10357V23.3037C11.168 23.527 11.0172 23.7175 10.8143 23.8108C10.7663 23.8329 10.7198 23.8563 10.6747 23.8809L7.54135 25.6676C5.35469 26.9209 3.55469 25.8809 3.55469 23.3476V10.3742C3.55469 9.53422 4.15469 8.49422 4.90135 8.06755L10.6747 4.76089Z" fill="#B3B3B3"/>
<path d="M20.2219 8.18246C20.3922 8.26681 20.5 8.44045 20.5 8.63052V26.5368C20.5 26.9053 20.115 27.1472 19.783 26.9872L13.783 24.0965C13.61 24.0132 13.5 23.8381 13.5 23.6461V5.65909C13.5 5.28823 13.8896 5.04644 14.2219 5.21103L20.2219 8.18246Z" fill="#B3B3B3"/>
<path d="M29.832 8.65212V21.6255C29.832 22.4655 29.232 23.5055 28.4854 23.9321L23.5807 26.7431C23.2473 26.9341 22.832 26.6935 22.832 26.3093V8.34244C22.832 8.16293 22.9283 7.99719 23.0842 7.9082L25.8454 6.33212C28.032 5.07878 29.832 6.11878 29.832 8.65212Z" fill="#B3B3B3"/>
</svg>
