<svg width="33" height="32" viewBox="0 0 33 32" fill="none" xmlns="http://www.w3.org/2000/svg">
<path d="M28.4613 21.4413C28.1413 25.0013 25.568 27.3346 21.8346 27.3346H9.83463C6.15464 27.3346 3.16797 24.348 3.16797 20.668V11.3346C3.16797 7.70797 5.35464 5.17464 8.75464 4.74797C9.1013 4.69464 9.4613 4.66797 9.83463 4.66797H21.8346C22.1813 4.66797 22.5146 4.6813 22.8346 4.73464C26.0213 5.10797 28.1813 7.33464 28.4613 10.5613C28.5013 10.948 28.1813 11.268 27.7946 11.268H25.728C24.448 11.268 23.2613 11.7613 22.408 12.6413C21.3946 13.628 20.888 15.0146 21.008 16.4013C21.2213 18.828 23.3546 20.7346 25.888 20.7346H27.7946C28.1813 20.7346 28.5013 21.0546 28.4613 21.4413Z" fill="#B3B3B3"/>
<path d="M29.8349 14.6256V17.3723C29.8349 18.1056 29.2483 18.7056 28.5016 18.7323H25.8883C24.4483 18.7323 23.1283 17.679 23.0083 16.239C22.9283 15.399 23.2483 14.6123 23.8083 14.0656C24.3016 13.559 24.9816 13.2656 25.7283 13.2656H28.5016C29.2483 13.2923 29.8349 13.8923 29.8349 14.6256Z" fill="#B3B3B3"/>
</svg>
