<svg width="33" height="32" viewBox="0 0 33 32" fill="none" xmlns="http://www.w3.org/2000/svg">
<path d="M16.5013 2.66797C13.008 2.66797 10.168 5.50797 10.168 9.0013C10.168 12.428 12.848 15.2013 16.3413 15.3213C16.448 15.308 16.5546 15.308 16.6346 15.3213C16.6613 15.3213 16.6746 15.3213 16.7013 15.3213C16.7146 15.3213 16.7146 15.3213 16.728 15.3213C20.1413 15.2013 22.8213 12.428 22.8346 9.0013C22.8346 5.50797 19.9946 2.66797 16.5013 2.66797Z" fill="#B3B3B3"/>
<path d="M23.2733 18.8659C19.5533 16.3859 13.4866 16.3859 9.73995 18.8659C8.04661 19.9992 7.11328 21.5325 7.11328 23.1725C7.11328 24.8125 8.04661 26.3325 9.72661 27.4525C11.5933 28.7059 14.0466 29.3325 16.4999 29.3325C18.9533 29.3325 21.4066 28.7059 23.2733 27.4525C24.9533 26.3192 25.8866 24.7992 25.8866 23.1459C25.8733 21.5059 24.9533 19.9859 23.2733 18.8659Z" fill="#B3B3B3"/>
</svg>
