<svg width="33" height="32" viewBox="0 0 33 32" fill="none" xmlns="http://www.w3.org/2000/svg">
<path d="M19.6343 2.66797H13.3677C11.981 2.66797 10.8477 3.78797 10.8477 5.17464V6.42797C10.8477 7.81464 11.9677 8.93464 13.3543 8.93464H19.6343C21.021 8.93464 22.141 7.81464 22.141 6.42797V5.17464C22.1543 3.78797 21.021 2.66797 19.6343 2.66797Z" fill="#B3B3B3"/>
<path d="M23.4867 6.42859C23.4867 8.54859 21.7534 10.2819 19.6334 10.2819H13.3667C11.2467 10.2819 9.51339 8.54859 9.51339 6.42859C9.51339 5.68193 8.71339 5.21526 8.04672 5.56193C6.16672 6.56193 4.88672 8.54859 4.88672 10.8286V23.3753C4.88672 26.6553 7.56672 29.3353 10.8467 29.3353H22.1534C25.4334 29.3353 28.1134 26.6553 28.1134 23.3753V10.8286C28.1134 8.54859 26.8334 6.56193 24.9534 5.56193C24.2867 5.21526 23.4867 5.68193 23.4867 6.42859ZM17.0067 22.6019H11.1667C10.6201 22.6019 10.1667 22.1486 10.1667 21.6019C10.1667 21.0553 10.6201 20.6019 11.1667 20.6019H17.0067C17.5534 20.6019 18.0067 21.0553 18.0067 21.6019C18.0067 22.1486 17.5534 22.6019 17.0067 22.6019ZM20.5001 17.2686H11.1667C10.6201 17.2686 10.1667 16.8153 10.1667 16.2686C10.1667 15.7219 10.6201 15.2686 11.1667 15.2686H20.5001C21.0467 15.2686 21.5001 15.7219 21.5001 16.2686C21.5001 16.8153 21.0467 17.2686 20.5001 17.2686Z" fill="#B3B3B3"/>
</svg>
