<svg width="33" height="34" viewBox="0 0 33 34" fill="none" xmlns="http://www.w3.org/2000/svg">
<path d="M27.6718 23.8498C27.2473 23.5053 26.6097 23.5716 26.2652 23.9961C23.7781 27.0605 19.5617 27.8972 16.1478 26.2428L16.8055 26.0038C17.3253 25.8075 17.598 25.2388 17.4017 24.7189C17.2158 24.2075 16.6368 23.9264 16.1169 24.1227L13.5595 25.0522C13.2213 25.1727 12.9776 25.473 12.919 25.8203C12.8707 26.176 13.0034 26.5414 13.283 26.7683C17.7037 30.356 24.2304 29.6771 27.8181 25.2564C28.1626 24.8319 28.0963 24.1943 27.6718 23.8498Z" fill="#B3B3B3"/>
<path d="M4.12013 24.0677C3.60084 24.0677 3.17021 23.6308 3.17021 23.1039V15.7786C3.10688 12.2958 4.3861 9.00586 6.76723 6.53839C9.14835 4.08377 12.3401 2.73438 15.7724 2.73438C22.7891 2.73438 28.5013 8.53036 28.5013 15.65V22.9753C28.5013 23.5022 28.0707 23.9392 27.5514 23.9392C27.0321 23.9392 26.6015 23.5022 26.6015 22.9753V15.65C26.6015 9.59703 21.7506 4.66209 15.7724 4.66209C12.8467 4.66209 10.1363 5.80586 8.12244 7.88779C6.09595 9.98257 5.01938 12.7713 5.07004 15.7528V23.091C5.07004 23.6308 4.65208 24.0677 4.12013 24.0677Z" fill="#B3B3B3"/>
<path d="M7.91291 16.0664H7.75636C5.22732 16.0664 3.16797 18.2264 3.16797 20.879V23.2538C3.16797 25.9064 5.22732 28.0664 7.75636 28.0664H7.91291C10.4419 28.0664 12.5013 25.9064 12.5013 23.2538V20.879C12.5013 18.2264 10.4419 16.0664 7.91291 16.0664Z" fill="#B3B3B3"/>
<path d="M23.9129 16.0664H23.7564C21.2273 16.0664 19.168 18.2264 19.168 20.879V23.2538C19.168 25.9064 21.2273 28.0664 23.7564 28.0664H23.9129C26.4419 28.0664 28.5013 25.9064 28.5013 23.2538V20.879C28.5013 18.2264 26.4419 16.0664 23.9129 16.0664Z" fill="#B3B3B3"/>
</svg>
