<svg width="140" height="24" viewBox="0 0 140 24" fill="none" xmlns="http://www.w3.org/2000/svg">
<path d="M15.3899 5.21003L16.7999 8.03003C16.9899 8.42003 17.4999 8.79003 17.9299 8.87003L20.4799 9.29003C22.1099 9.56003 22.4899 10.74 21.3199 11.92L19.3299 13.91C18.9999 14.24 18.8099 14.89 18.9199 15.36L19.4899 17.82C19.9399 19.76 18.8999 20.52 17.1899 19.5L14.7999 18.08C14.3699 17.82 13.6499 17.82 13.2199 18.08L10.8299 19.5C9.11994 20.51 8.07994 19.76 8.52994 17.82L9.09994 15.36C9.18994 14.88 8.99994 14.23 8.66994 13.9L6.67994 11.91C5.50994 10.74 5.88994 9.56003 7.51994 9.28003L10.0699 8.86003C10.4999 8.79003 11.0099 8.41003 11.1999 8.02003L12.6099 5.20003C13.3799 3.68003 14.6199 3.68003 15.3899 5.21003Z" fill="#FF6731"/>
<path d="M8 5.75H2C1.59 5.75 1.25 5.41 1.25 5C1.25 4.59 1.59 4.25 2 4.25H8C8.41 4.25 8.75 4.59 8.75 5C8.75 5.41 8.41 5.75 8 5.75Z" fill="#FF6731"/>
<path d="M5 19.75H2C1.59 19.75 1.25 19.41 1.25 19C1.25 18.59 1.59 18.25 2 18.25H5C5.41 18.25 5.75 18.59 5.75 19C5.75 19.41 5.41 19.75 5 19.75Z" fill="#FF6731"/>
<path d="M3 12.75H2C1.59 12.75 1.25 12.41 1.25 12C1.25 11.59 1.59 11.25 2 11.25H3C3.41 11.25 3.75 11.59 3.75 12C3.75 12.41 3.41 12.75 3 12.75Z" fill="#FF6731"/>
<path d="M44.3899 5.21003L45.7999 8.03003C45.9899 8.42003 46.4999 8.79003 46.9299 8.87003L49.4799 9.29003C51.1099 9.56003 51.4899 10.74 50.3199 11.92L48.3299 13.91C47.9999 14.24 47.8099 14.89 47.9199 15.36L48.4899 17.82C48.9399 19.76 47.8999 20.52 46.1899 19.5L43.7999 18.08C43.3699 17.82 42.6499 17.82 42.2199 18.08L39.8299 19.5C38.1199 20.51 37.0799 19.76 37.5299 17.82L38.0999 15.36C38.1899 14.88 37.9999 14.23 37.6699 13.9L35.6799 11.91C34.5099 10.74 34.8899 9.56003 36.5199 9.28003L39.0699 8.86003C39.4999 8.79003 40.0099 8.41003 40.1999 8.02003L41.6099 5.20003C42.3799 3.68003 43.6199 3.68003 44.3899 5.21003Z" fill="#FF6731"/>
<path d="M37 5.75H31C30.59 5.75 30.25 5.41 30.25 5C30.25 4.59 30.59 4.25 31 4.25H37C37.41 4.25 37.75 4.59 37.75 5C37.75 5.41 37.41 5.75 37 5.75Z" fill="#FF6731"/>
<path d="M34 19.75H31C30.59 19.75 30.25 19.41 30.25 19C30.25 18.59 30.59 18.25 31 18.25H34C34.41 18.25 34.75 18.59 34.75 19C34.75 19.41 34.41 19.75 34 19.75Z" fill="#FF6731"/>
<path d="M32 12.75H31C30.59 12.75 30.25 12.41 30.25 12C30.25 11.59 30.59 11.25 31 11.25H32C32.41 11.25 32.75 11.59 32.75 12C32.75 12.41 32.41 12.75 32 12.75Z" fill="#FF6731"/>
<path d="M73.3899 5.21003L74.7999 8.03003C74.9899 8.42003 75.4999 8.79003 75.9299 8.87003L78.4799 9.29003C80.1099 9.56003 80.4899 10.74 79.3199 11.92L77.3299 13.91C76.9999 14.24 76.8099 14.89 76.9199 15.36L77.4899 17.82C77.9399 19.76 76.8999 20.52 75.1899 19.5L72.7999 18.08C72.3699 17.82 71.6499 17.82 71.2199 18.08L68.8299 19.5C67.1199 20.51 66.0799 19.76 66.5299 17.82L67.0999 15.36C67.1899 14.88 66.9999 14.23 66.6699 13.9L64.6799 11.91C63.5099 10.74 63.8899 9.56003 65.5199 9.28003L68.0699 8.86003C68.4999 8.79003 69.0099 8.41003 69.1999 8.02003L70.6099 5.20003C71.3799 3.68003 72.6199 3.68003 73.3899 5.21003Z" fill="#FF6731"/>
<path d="M66 5.75H60C59.59 5.75 59.25 5.41 59.25 5C59.25 4.59 59.59 4.25 60 4.25H66C66.41 4.25 66.75 4.59 66.75 5C66.75 5.41 66.41 5.75 66 5.75Z" fill="#FF6731"/>
<path d="M63 19.75H60C59.59 19.75 59.25 19.41 59.25 19C59.25 18.59 59.59 18.25 60 18.25H63C63.41 18.25 63.75 18.59 63.75 19C63.75 19.41 63.41 19.75 63 19.75Z" fill="#FF6731"/>
<path d="M61 12.75H60C59.59 12.75 59.25 12.41 59.25 12C59.25 11.59 59.59 11.25 60 11.25H61C61.41 11.25 61.75 11.59 61.75 12C61.75 12.41 61.41 12.75 61 12.75Z" fill="#FF6731"/>
<path d="M102.39 5.21003L103.8 8.03003C103.99 8.42003 104.5 8.79003 104.93 8.87003L107.48 9.29003C109.11 9.56003 109.49 10.74 108.32 11.92L106.33 13.91C106 14.24 105.81 14.89 105.92 15.36L106.49 17.82C106.94 19.76 105.9 20.52 104.19 19.5L101.8 18.08C101.37 17.82 100.65 17.82 100.22 18.08L97.8299 19.5C96.1199 20.51 95.0799 19.76 95.5299 17.82L96.0999 15.36C96.1899 14.88 95.9999 14.23 95.6699 13.9L93.6799 11.91C92.5099 10.74 92.8899 9.56003 94.5199 9.28003L97.0699 8.86003C97.4999 8.79003 98.0099 8.41003 98.1999 8.02003L99.6099 5.20003C100.38 3.68003 101.62 3.68003 102.39 5.21003Z" fill="#FF6731"/>
<path d="M95 5.75H89C88.59 5.75 88.25 5.41 88.25 5C88.25 4.59 88.59 4.25 89 4.25H95C95.41 4.25 95.75 4.59 95.75 5C95.75 5.41 95.41 5.75 95 5.75Z" fill="#FF6731"/>
<path d="M92 19.75H89C88.59 19.75 88.25 19.41 88.25 19C88.25 18.59 88.59 18.25 89 18.25H92C92.41 18.25 92.75 18.59 92.75 19C92.75 19.41 92.41 19.75 92 19.75Z" fill="#FF6731"/>
<path d="M90 12.75H89C88.59 12.75 88.25 12.41 88.25 12C88.25 11.59 88.59 11.25 89 11.25H90C90.41 11.25 90.75 11.59 90.75 12C90.75 12.41 90.41 12.75 90 12.75Z" fill="#FF6731"/>
<path d="M131.39 5.21003L132.8 8.03003C132.99 8.42003 133.5 8.79003 133.93 8.87003L136.48 9.29003C138.11 9.56003 138.49 10.74 137.32 11.92L135.33 13.91C135 14.24 134.81 14.89 134.92 15.36L135.49 17.82C135.94 19.76 134.9 20.52 133.19 19.5L130.8 18.08C130.37 17.82 129.65 17.82 129.22 18.08L126.83 19.5C125.12 20.51 124.08 19.76 124.53 17.82L125.1 15.36C125.19 14.88 125 14.23 124.67 13.9L122.68 11.91C121.51 10.74 121.89 9.56003 123.52 9.28003L126.07 8.86003C126.5 8.79003 127.01 8.41003 127.2 8.02003L128.61 5.20003C129.38 3.68003 130.62 3.68003 131.39 5.21003Z" fill="#FF6731"/>
<path d="M124 5.75H118C117.59 5.75 117.25 5.41 117.25 5C117.25 4.59 117.59 4.25 118 4.25H124C124.41 4.25 124.75 4.59 124.75 5C124.75 5.41 124.41 5.75 124 5.75Z" fill="#FF6731"/>
<path d="M121 19.75H118C117.59 19.75 117.25 19.41 117.25 19C117.25 18.59 117.59 18.25 118 18.25H121C121.41 18.25 121.75 18.59 121.75 19C121.75 19.41 121.41 19.75 121 19.75Z" fill="#FF6731"/>
<path d="M119 12.75H118C117.59 12.75 117.25 12.41 117.25 12C117.25 11.59 117.59 11.25 118 11.25H119C119.41 11.25 119.75 11.59 119.75 12C119.75 12.41 119.41 12.75 119 12.75Z" fill="#FF6731"/>
</svg>
